<svg width="28" height="28" viewBox="0 0 28 28" fill="none" xmlns="http://www.w3.org/2000/svg">
<path d="M8.39038 12.1251C8.38931 11.3841 8.53488 10.6503 8.8187 9.96584C9.10251 9.28137 9.51892 8.65984 10.0438 8.137C10.5689 7.61416 11.1922 7.20034 11.8778 6.91939C12.5635 6.63847 13.2979 6.49596 14.0389 6.50008C17.1326 6.52354 19.6091 9.09384 19.6091 12.1954V12.7501C19.6091 15.547 20.195 17.172 20.7106 18.0626C20.7654 18.1574 20.7944 18.265 20.7944 18.3745C20.7946 18.4841 20.7659 18.5917 20.7112 18.6866C20.6566 18.7816 20.578 18.8605 20.4834 18.9155C20.3887 18.9706 20.2811 18.9997 20.1717 19.0001H7.82794C7.71838 18.9997 7.61081 18.9706 7.5162 18.9155C7.42145 18.8605 7.34286 18.7816 7.28824 18.6866C7.23361 18.5917 7.20493 18.4841 7.20508 18.3745C7.20523 18.265 7.23407 18.1574 7.28885 18.0626C7.80444 17.172 8.39038 15.547 8.39038 12.7501V12.1251Z" fill="black" fill-opacity="0.1"/>
<path fill-rule="evenodd" clip-rule="evenodd" d="M7.76538 12.7501V12.1251C7.76538 12.1251 7.76362 10.8786 8.24133 9.72645C8.24133 9.72645 8.71904 8.57425 9.60285 7.69411C9.60285 7.69411 10.4867 6.81397 11.6408 6.34105C11.6408 6.34105 12.795 5.86814 14.0423 5.87508C14.0423 5.87508 15.3106 5.88468 16.4654 6.39135C16.4654 6.39135 17.5766 6.87881 18.432 7.75745C18.432 7.75745 19.284 8.63266 19.7513 9.76121C19.7513 9.76121 20.2341 10.9274 20.2341 12.1954V12.7501C20.2341 12.7501 20.2341 15.992 21.2516 17.7494C21.2516 17.7494 21.4191 18.0396 21.4194 18.374C21.4194 18.374 21.4197 18.7083 21.2531 18.9982C21.2531 18.9982 21.0864 19.288 20.7973 19.4559C20.7973 19.4559 20.5082 19.6239 20.1738 19.6251L7.82788 19.6251C7.82788 19.6251 7.49133 19.6239 7.20222 19.4559C7.20222 19.4559 6.91311 19.288 6.74645 18.9982C6.74645 18.9982 6.57978 18.7083 6.58008 18.374C6.58008 18.374 6.58038 18.0396 6.74755 17.7501C6.74755 17.7501 7.76538 15.992 7.76538 12.7501ZM9.01538 12.7501C9.01538 12.7501 9.01538 16.3277 7.83008 18.3751L20.1694 18.3751C20.1694 18.3751 18.9841 16.3272 18.9841 12.7501V12.1954C18.9841 12.1954 18.9841 10.1166 17.5363 8.6294C17.5363 8.6294 16.0869 7.1406 14.0353 7.12506C14.0353 7.12506 13.0378 7.11951 12.1148 7.49772C12.1148 7.49772 11.1917 7.87593 10.4849 8.57982C10.4849 8.57982 9.77807 9.28372 9.39602 10.2052C9.39602 10.2052 9.01397 11.1267 9.01538 12.1251V12.7501Z" fill="#1C1C1C"/>
<path d="M17.125 19.625V19C17.125 18.6548 16.8452 18.375 16.5 18.375C16.1548 18.375 15.875 18.6548 15.875 19V19.625C15.875 20.4016 15.3258 20.9508 15.3258 20.9508C14.7766 21.5 14 21.5 14 21.5C13.2234 21.5 12.6742 20.9508 12.6742 20.9508C12.125 20.4016 12.125 19.625 12.125 19.625V19C12.125 18.6548 11.8452 18.375 11.5 18.375C11.1548 18.375 10.875 18.6548 10.875 19L10.875 19.625C10.875 20.9194 11.7903 21.8347 11.7903 21.8347C12.7056 22.75 14 22.75 14 22.75C15.2944 22.75 16.2097 21.8347 16.2097 21.8347C17.125 20.9194 17.125 19.625 17.125 19.625Z" fill="#1C1C1C"/>
</svg>
