<svg width="75" height="75" viewBox="0 0 75 75" fill="none" xmlns="http://www.w3.org/2000/svg">
<path d="M56.9365 14.749L14.749 56.9365C14.3094 57.376 14.0625 57.9721 14.0625 58.5938C14.0625 59.2154 14.3094 59.8115 14.749 60.251C15.1885 60.6906 15.7846 60.9375 16.4062 60.9375C17.0279 60.9375 17.624 60.6906 18.0635 60.251L60.251 18.0635C60.6906 17.624 60.9375 17.0279 60.9375 16.4062C60.9375 15.7846 60.6906 15.1885 60.251 14.749C59.8115 14.3094 59.2154 14.0625 58.5938 14.0625C57.9721 14.0625 57.376 14.3094 56.9365 14.749Z" fill="#1C1C1C"/>
<path d="M18.0635 14.749C17.624 14.3094 17.0279 14.0625 16.4062 14.0625C15.7846 14.0625 15.1885 14.3094 14.749 14.749C14.3094 15.1885 14.0625 15.7846 14.0625 16.4062C14.0625 17.0279 14.3094 17.624 14.749 18.0635L56.9365 60.251C57.376 60.6906 57.9721 60.9375 58.5938 60.9375C59.2154 60.9375 59.8115 60.6906 60.251 60.251C60.6906 59.8115 60.9375 59.2154 60.9375 58.5938C60.9375 57.9721 60.6906 57.376 60.251 56.9365L18.0635 14.749Z" fill="#1C1C1C"/>
</svg>
