<svg width="14" height="14" viewBox="0 0 14 14" fill="none" xmlns="http://www.w3.org/2000/svg">
<path d="M13.3496 13.3563C13.2563 13.4483 13.1306 13.4999 12.9996 13.5001C12.8668 13.4995 12.7393 13.4481 12.6434 13.3563L9.94336 10.6501C8.80622 11.6052 7.34425 12.0845 5.86236 11.9879C4.38046 11.8913 2.99306 11.2264 1.98951 10.1317C0.985965 9.0371 0.443754 7.59729 0.475967 6.1126C0.508179 4.62791 1.11233 3.21298 2.16241 2.1629C3.21249 1.11282 4.62743 0.508667 6.11212 0.476455C7.59681 0.444243 9.03661 0.986453 10.1313 1.99C11.2259 2.99355 11.8908 4.38095 11.9874 5.86285C12.084 7.34474 11.6047 8.80671 10.6496 9.94385L13.3496 12.6438C13.3969 12.6904 13.4344 12.7458 13.46 12.807C13.4856 12.8681 13.4988 12.9338 13.4988 13.0001C13.4988 13.0664 13.4856 13.132 13.46 13.1932C13.4344 13.2544 13.3969 13.3098 13.3496 13.3563ZM6.24961 11.0001C7.18907 11.0001 8.10743 10.7215 8.88857 10.1996C9.6697 9.67764 10.2785 8.93579 10.638 8.06784C10.9976 7.19989 11.0916 6.24483 10.9083 5.32342C10.7251 4.40201 10.2727 3.55564 9.60837 2.89134C8.94407 2.22704 8.0977 1.77465 7.17629 1.59137C6.25488 1.40809 5.29981 1.50215 4.43186 1.86167C3.56391 2.22119 2.82206 2.83001 2.30013 3.61114C1.77819 4.39227 1.49961 5.31064 1.49961 6.2501C1.50126 7.50937 2.00224 8.71659 2.89268 9.60703C3.78312 10.4975 4.99034 10.9984 6.24961 11.0001Z" fill="white" fill-opacity="0.2"/>
</svg>
